<?xml version="1.0" encoding="UTF-8"?>
<!DOCTYPE svg PUBLIC "-//W3C//DTD SVG 1.1//EN" "http://www.w3.org/Graphics/SVG/1.1/DTD/svg11.dtd">
<svg xmlns="http://www.w3.org/2000/svg" version="1.1" width="256px" height="256px" style="shape-rendering:geometricPrecision; text-rendering:geometricPrecision; image-rendering:optimizeQuality; fill-rule:evenodd; clip-rule:evenodd" xmlns:xlink="http://www.w3.org/1999/xlink">
<g><path style="opacity:0.388" fill="#e4b0a6" d="M 109.5,5.5 C 109.167,5.5 108.833,5.5 108.5,5.5C 102.255,3.56512 96.4218,4.23178 91,7.5C 85.6667,18.1667 80.3333,28.8333 75,39.5C 70.9725,53.0834 66.4725,66.4168 61.5,79.5C 61.1667,79.5 60.8333,79.5 60.5,79.5C 67.27,53.9823 76.77,29.649 89,6.5C 94.3957,2.42174 100.396,1.42174 107,3.5C 108.376,3.68423 109.209,4.35089 109.5,5.5 Z"/></g>
<g><path style="opacity:0.999" fill="#fe6244" d="M 108.5,5.5 C 108.456,17.5099 108.123,29.5099 107.5,41.5C 104.841,73.9973 104.841,106.497 107.5,139C 107.833,140.833 108.167,142.667 108.5,144.5C 110.283,142.977 110.949,140.977 110.5,138.5C 115.605,127.933 119.938,116.933 123.5,105.5C 129.109,91.2803 134.442,76.947 139.5,62.5C 141.136,61.2511 142.303,59.5844 143,57.5C 146,49.5 149,41.5 152,33.5C 153.371,31.9586 154.871,30.6253 156.5,29.5C 161.5,29.5 166.5,29.5 171.5,29.5C 171.187,33.0419 171.521,36.3752 172.5,39.5C 172.5,39.8333 172.5,40.1667 172.5,40.5C 172.5,41.1667 172.5,41.8333 172.5,42.5C 170.07,48.8138 169.07,55.4804 169.5,62.5C 168.263,82.6569 168.263,102.657 169.5,122.5C 169.792,141.886 172.126,160.886 176.5,179.5C 177.918,187.423 181.251,194.423 186.5,200.5C 188.332,202.894 190.832,203.894 194,203.5C 197.207,203.259 200.374,202.759 203.5,202C 204.056,201.617 204.389,201.117 204.5,200.5C 207.785,200.072 210.785,199.072 213.5,197.5C 217.124,194.844 220.791,194.844 224.5,197.5C 229.84,209.986 227.507,220.819 217.5,230C 212.62,232.949 207.62,235.449 202.5,237.5C 192.868,242.388 182.701,246.055 172,248.5C 161.861,247.196 155.694,241.529 153.5,231.5C 148.516,216.62 145.849,201.287 145.5,185.5C 144.681,172.968 143.348,160.635 141.5,148.5C 141.5,147.5 141.5,146.5 141.5,145.5C 142.826,130.995 142.826,116.328 141.5,101.5C 140.295,102.577 139.628,103.91 139.5,105.5C 139.5,105.833 139.5,106.167 139.5,106.5C 138.331,109.341 137.331,112.341 136.5,115.5C 132.97,126.758 129.637,138.092 126.5,149.5C 125.458,153.697 124.125,157.697 122.5,161.5C 117.119,172.807 115.119,184.807 116.5,197.5C 113.696,198.638 110.696,198.805 107.5,198C 99.5166,195.508 91.8499,192.341 84.5,188.5C 82.9617,186.757 81.9617,184.757 81.5,182.5C 80.8357,177.532 80.3357,172.532 80,167.5C 79.6174,166.944 79.1174,166.611 78.5,166.5C 78.5,165.833 78.5,165.167 78.5,164.5C 78.5,164.167 78.5,163.833 78.5,163.5C 79.554,155.801 79.2206,148.134 77.5,140.5C 77.6716,139.508 77.3382,138.842 76.5,138.5C 76.4371,123.47 76.6037,108.47 77,93.5C 72.6654,102.005 69.832,111.005 68.5,120.5C 66.0564,126.581 64.0564,132.914 62.5,139.5C 58.2354,152.547 54.5688,165.88 51.5,179.5C 48.7041,192.147 46.0374,204.813 43.5,217.5C 43.4162,220.327 42.7496,222.994 41.5,225.5C 39.5,225.5 37.5,225.5 35.5,225.5C 33.8791,223.883 31.8791,222.716 29.5,222C 28.9415,221.275 28.6082,220.442 28.5,219.5C 30.7069,206.466 33.0403,193.466 35.5,180.5C 38.5671,164.903 42.2338,149.57 46.5,134.5C 49.3049,125.629 51.9716,116.629 54.5,107.5C 56.8359,98.1606 59.1692,88.8273 61.5,79.5C 66.4725,66.4168 70.9725,53.0834 75,39.5C 80.3333,28.8333 85.6667,18.1667 91,7.5C 96.4218,4.23178 102.255,3.56512 108.5,5.5 Z"/></g>
<g><path style="opacity:0.313" fill="#f2735a" d="M 108.5,5.5 C 108.833,5.5 109.167,5.5 109.5,5.5C 109.5,16.8333 109.5,28.1667 109.5,39.5C 108.833,40.1667 108.167,40.8333 107.5,41.5C 108.123,29.5099 108.456,17.5099 108.5,5.5 Z"/></g>
<g><path style="opacity:0.129" fill="#eaab9e" d="M 172.5,40.5 C 172.5,40.1667 172.5,39.8333 172.5,39.5C 172.5,35.8333 172.5,32.1667 172.5,28.5C 166.974,28.1786 161.64,28.5119 156.5,29.5C 154.871,30.6253 153.371,31.9586 152,33.5C 149,41.5 146,49.5 143,57.5C 142.303,59.5844 141.136,61.2511 139.5,62.5C 143.177,52.1357 147.011,41.8024 151,31.5C 152.214,29.9512 153.714,28.7845 155.5,28C 161.491,27.5005 167.491,27.3338 173.5,27.5C 173.818,32.0323 173.485,36.3656 172.5,40.5 Z"/></g>
<g><path style="opacity:0.878" fill="#fd8e78" d="M 156.5,29.5 C 161.64,28.5119 166.974,28.1786 172.5,28.5C 172.5,32.1667 172.5,35.8333 172.5,39.5C 171.521,36.3752 171.187,33.0419 171.5,29.5C 166.5,29.5 161.5,29.5 156.5,29.5 Z"/></g>
<g><path style="opacity:0.639" fill="#f6a493" d="M 172.5,42.5 C 172.232,49.6835 171.565,56.6835 170.5,63.5C 170.5,62.8333 170.167,62.5 169.5,62.5C 169.07,55.4804 170.07,48.8138 172.5,42.5 Z"/></g>
<g><path style="opacity:0.851" fill="#fa856d" d="M 169.5,62.5 C 170.167,62.5 170.5,62.8333 170.5,63.5C 170.5,67.5 170.5,71.5 170.5,75.5C 169.504,90.9911 169.17,106.658 169.5,122.5C 168.263,102.657 168.263,82.6569 169.5,62.5 Z"/></g>
<g><path style="opacity:0.365" fill="#d9b4ae" d="M 139.5,62.5 C 134.442,76.947 129.109,91.2803 123.5,105.5C 122.833,105.833 122.167,106.167 121.5,106.5C 126.552,91.321 132.552,76.6543 139.5,62.5 Z"/></g>
<g><path style="opacity:0.29" fill="#eca798" d="M 60.5,79.5 C 60.8333,79.5 61.1667,79.5 61.5,79.5C 59.1692,88.8273 56.8359,98.1606 54.5,107.5C 53.8333,107.5 53.1667,107.5 52.5,107.5C 54.8556,98.0777 57.5222,88.7444 60.5,79.5 Z"/></g>
<g><path style="opacity:0.271" fill="#c99b92" d="M 76.5,138.5 C 76.81,141.713 76.4767,144.713 75.5,147.5C 75.6666,132.83 75.4999,118.163 75,103.5C 73.0598,109.154 71.2264,114.82 69.5,120.5C 69.1667,120.5 68.8333,120.5 68.5,120.5C 69.832,111.005 72.6654,102.005 77,93.5C 76.6037,108.47 76.4371,123.47 76.5,138.5 Z"/></g>
<g><path style="opacity:0.624" fill="#f5937e" d="M 139.5,106.5 C 139.5,107.5 139.5,108.5 139.5,109.5C 139.634,111.292 139.301,112.958 138.5,114.5C 137.833,114.833 137.167,115.167 136.5,115.5C 137.331,112.341 138.331,109.341 139.5,106.5 Z"/></g>
<g><path style="opacity:0.275" fill="#f1927f" d="M 109.5,39.5 C 107.387,69.3107 107.054,99.144 108.5,129C 108.515,132.576 109.182,135.742 110.5,138.5C 110.949,140.977 110.283,142.977 108.5,144.5C 108.167,142.667 107.833,140.833 107.5,139C 104.841,106.497 104.841,73.9973 107.5,41.5C 108.167,40.8333 108.833,40.1667 109.5,39.5 Z"/></g>
<g><path style="opacity:0.412" fill="#fdbfb2" d="M 141.5,145.5 C 140.833,133.5 140.167,121.5 139.5,109.5C 139.5,108.5 139.5,107.5 139.5,106.5C 139.5,106.167 139.5,105.833 139.5,105.5C 140.117,105.389 140.617,105.056 141,104.5C 141.5,118.163 141.667,131.829 141.5,145.5 Z"/></g>
<g><path style="opacity:0.894" fill="#fd8a73" d="M 141.5,145.5 C 141.667,131.829 141.5,118.163 141,104.5C 140.617,105.056 140.117,105.389 139.5,105.5C 139.628,103.91 140.295,102.577 141.5,101.5C 142.826,116.328 142.826,130.995 141.5,145.5 Z"/></g>
<g><path style="opacity:0.561" fill="#fc9d89" d="M 52.5,107.5 C 53.1667,107.5 53.8333,107.5 54.5,107.5C 51.9716,116.629 49.3049,125.629 46.5,134.5C 46.6741,132.139 47.0074,129.806 47.5,127.5C 48.7567,120.73 50.4234,114.063 52.5,107.5 Z"/></g>
<g><path style="opacity:0.082" fill="#d2a89f" d="M 68.5,120.5 C 68.8333,120.5 69.1667,120.5 69.5,120.5C 67.4055,130.103 64.7388,139.436 61.5,148.5C 61.5079,145.455 61.8413,142.455 62.5,139.5C 64.0564,132.914 66.0564,126.581 68.5,120.5 Z"/></g>
<g><path style="opacity:0.529" fill="#efada0" d="M 123.5,105.5 C 119.938,116.933 115.605,127.933 110.5,138.5C 113.591,127.648 117.258,116.981 121.5,106.5C 122.167,106.167 122.833,105.833 123.5,105.5 Z"/></g>
<g><path style="opacity:0.251" fill="#e5a79a" d="M 138.5,114.5 C 135.572,126.283 132.239,137.95 128.5,149.5C 127.833,149.5 127.167,149.5 126.5,149.5C 129.637,138.092 132.97,126.758 136.5,115.5C 137.167,115.167 137.833,114.833 138.5,114.5 Z"/></g>
<g><path style="opacity:0.502" fill="#fdc7bc" d="M 76.5,138.5 C 77.3382,138.842 77.6716,139.508 77.5,140.5C 77.5,143.5 77.5,146.5 77.5,149.5C 77.1667,149.5 76.8333,149.5 76.5,149.5C 76.1667,148.833 75.8333,148.167 75.5,147.5C 76.4767,144.713 76.81,141.713 76.5,138.5 Z"/></g>
<g><path style="opacity:0.906" fill="#fd7a5f" d="M 77.5,140.5 C 79.2206,148.134 79.554,155.801 78.5,163.5C 78.1667,158.833 77.8333,154.167 77.5,149.5C 77.5,146.5 77.5,143.5 77.5,140.5 Z"/></g>
<g><path style="opacity:0.675" fill="#fd7f66" d="M 62.5,139.5 C 61.8413,142.455 61.5079,145.455 61.5,148.5C 60.8826,148.611 60.3826,148.944 60,149.5C 58.4961,156.181 56.9961,162.847 55.5,169.5C 55.1489,172.903 54.4822,176.237 53.5,179.5C 52.8333,179.5 52.1667,179.5 51.5,179.5C 54.5688,165.88 58.2354,152.547 62.5,139.5 Z"/></g>
<g><path style="opacity:0.396" fill="#f79681" d="M 170.5,75.5 C 169.107,109.384 171.107,143.051 176.5,176.5C 176.5,177.5 176.5,178.5 176.5,179.5C 172.126,160.886 169.792,141.886 169.5,122.5C 169.17,106.658 169.504,90.9911 170.5,75.5 Z"/></g>
<g><path style="opacity:0.016" fill="#c0a29b" d="M 61.5,148.5 C 60.3199,155.222 58.8199,161.889 57,168.5C 56.6174,169.056 56.1174,169.389 55.5,169.5C 56.9961,162.847 58.4961,156.181 60,149.5C 60.3826,148.944 60.8826,148.611 61.5,148.5 Z"/></g>
<g><path style="opacity:0.416" fill="#cba8a0" d="M 76.5,149.5 C 76.8333,149.5 77.1667,149.5 77.5,149.5C 77.8333,154.167 78.1667,158.833 78.5,163.5C 78.5,163.833 78.5,164.167 78.5,164.5C 77.7784,164.082 77.2784,163.416 77,162.5C 76.501,158.179 76.3343,153.846 76.5,149.5 Z"/></g>
<g><path style="opacity:0.918" fill="#fd7f65" d="M 122.5,161.5 C 121.519,167.613 120.019,173.613 118,179.5C 117.501,185.491 117.334,191.491 117.5,197.5C 117.167,197.5 116.833,197.5 116.5,197.5C 115.119,184.807 117.119,172.807 122.5,161.5 Z"/></g>
<g><path style="opacity:0.361" fill="#c3a7a0" d="M 126.5,149.5 C 127.167,149.5 127.833,149.5 128.5,149.5C 125.441,160.512 122.275,171.512 119,182.5C 118.501,187.489 118.334,192.489 118.5,197.5C 118.167,197.5 117.833,197.5 117.5,197.5C 117.334,191.491 117.501,185.491 118,179.5C 120.019,173.613 121.519,167.613 122.5,161.5C 124.125,157.697 125.458,153.697 126.5,149.5 Z"/></g>
<g><path style="opacity:0.878" fill="#fc8a73" d="M 141.5,148.5 C 143.348,160.635 144.681,172.968 145.5,185.5C 144.833,184.833 144.167,184.167 143.5,183.5C 142.133,171.888 141.466,160.221 141.5,148.5 Z"/></g>
<g><path style="opacity:0.827" fill="#ff917a" d="M 78.5,166.5 C 79.1174,166.611 79.6174,166.944 80,167.5C 80.3357,172.532 80.8357,177.532 81.5,182.5C 80.8333,182.5 80.1667,182.5 79.5,182.5C 78.8058,177.195 78.4724,171.862 78.5,166.5 Z"/></g>
<g><path style="opacity:0.102" fill="#cca69e" d="M 47.5,127.5 C 47.0074,129.806 46.6741,132.139 46.5,134.5C 42.2338,149.57 38.5671,164.903 35.5,180.5C 35.1667,180.5 34.8333,180.5 34.5,180.5C 37.1348,162.296 41.4681,144.629 47.5,127.5 Z"/></g>
<g><path style="opacity:0.106" fill="#dfa195" d="M 34.5,180.5 C 34.8333,180.5 35.1667,180.5 35.5,180.5C 33.0403,193.466 30.7069,206.466 28.5,219.5C 28.6082,220.442 28.9415,221.275 29.5,222C 31.8791,222.716 33.8791,223.883 35.5,225.5C 29.5301,226.274 26.8635,223.774 27.5,218C 29.0437,205.222 31.3771,192.722 34.5,180.5 Z"/></g>
<g><path style="opacity:0.773" fill="#f49886" d="M 51.5,179.5 C 52.1667,179.5 52.8333,179.5 53.5,179.5C 50.8284,191.86 48.1618,204.193 45.5,216.5C 44.8333,216.833 44.1667,217.167 43.5,217.5C 46.0374,204.813 48.7041,192.147 51.5,179.5 Z"/></g>
<g><path style="opacity:0.031" fill="#d8beba" d="M 176.5,176.5 C 178.311,185.456 182.311,193.456 188.5,200.5C 187.833,200.5 187.167,200.5 186.5,200.5C 181.251,194.423 177.918,187.423 176.5,179.5C 176.5,178.5 176.5,177.5 176.5,176.5 Z"/></g>
<g><path style="opacity:0.471" fill="#e9b6ab" d="M 79.5,182.5 C 80.1667,182.5 80.8333,182.5 81.5,182.5C 81.9617,184.757 82.9617,186.757 84.5,188.5C 91.8499,192.341 99.5166,195.508 107.5,198C 110.696,198.805 113.696,198.638 116.5,197.5C 116.833,197.5 117.167,197.5 117.5,197.5C 117.833,197.5 118.167,197.5 118.5,197.5C 117.308,199.922 115.308,200.922 112.5,200.5C 102.026,198.433 92.0256,194.933 82.5,190C 80.7976,187.765 79.7976,185.265 79.5,182.5 Z"/></g>
<g><path style="opacity:0.078" fill="#c7afac" d="M 226.5,198.5 C 225.833,198.167 225.167,197.833 224.5,197.5C 220.791,194.844 217.124,194.844 213.5,197.5C 210.402,197.756 207.402,198.422 204.5,199.5C 210.335,194.938 217.001,193.438 224.5,195C 225.823,195.816 226.489,196.983 226.5,198.5 Z"/></g>
<g><path style="opacity:0.533" fill="#ffa18e" d="M 213.5,197.5 C 210.785,199.072 207.785,200.072 204.5,200.5C 202.565,201.15 200.565,201.483 198.5,201.5C 200.214,200.262 202.214,199.595 204.5,199.5C 207.402,198.422 210.402,197.756 213.5,197.5 Z"/></g>
<g><path style="opacity:0.894" fill="#fc7f65" d="M 186.5,200.5 C 187.167,200.5 187.833,200.5 188.5,200.5C 191.764,201.324 195.098,201.658 198.5,201.5C 200.565,201.483 202.565,201.15 204.5,200.5C 204.389,201.117 204.056,201.617 203.5,202C 200.374,202.759 197.207,203.259 194,203.5C 190.832,203.894 188.332,202.894 186.5,200.5 Z"/></g>
<g><path style="opacity:0.478" fill="#f1a08f" d="M 143.5,183.5 C 144.167,184.167 144.833,184.833 145.5,185.5C 145.849,201.287 148.516,216.62 153.5,231.5C 152.833,231.167 152.167,230.833 151.5,230.5C 149.868,227.442 148.701,224.109 148,220.5C 145.446,208.289 143.946,195.956 143.5,183.5 Z"/></g>
<g><path style="opacity:0.098" fill="#e0aea4" d="M 45.5,216.5 C 45.3215,219.216 44.8215,221.883 44,224.5C 43.3292,225.252 42.4959,225.586 41.5,225.5C 42.7496,222.994 43.4162,220.327 43.5,217.5C 44.1667,217.167 44.8333,216.833 45.5,216.5 Z"/></g>
<g><path style="opacity:0.514" fill="#efaea1" d="M 224.5,197.5 C 225.167,197.833 225.833,198.167 226.5,198.5C 232.75,219.234 225.417,232.234 204.5,237.5C 203.833,237.5 203.167,237.5 202.5,237.5C 207.62,235.449 212.62,232.949 217.5,230C 227.507,220.819 229.84,209.986 224.5,197.5 Z"/></g>
<g><path style="opacity:0.075" fill="#dab9b1" d="M 151.5,230.5 C 152.167,230.833 152.833,231.167 153.5,231.5C 155.694,241.529 161.861,247.196 172,248.5C 182.701,246.055 192.868,242.388 202.5,237.5C 203.167,237.5 203.833,237.5 204.5,237.5C 203.426,238.885 202.093,240.051 200.5,241C 193.092,244.248 185.425,246.915 177.5,249C 163.204,250.884 154.537,244.717 151.5,230.5 Z"/></g>
</svg>
